<svg id="Capa_1" enable-background="new 0 0 512 512" height="512" viewBox="0 0 512 512" width="512" xmlns="http://www.w3.org/2000/svg" xmlns:xlink="http://www.w3.org/1999/xlink"><linearGradient id="SVGID_1_" gradientUnits="userSpaceOnUse" x1="74.98" x2="437.019" y1="437.02" y2="74.981"><stop offset="0" stop-color="#560dff"/><stop offset=".2342" stop-color="#6351f6"/><stop offset=".5089" stop-color="#729bed"/><stop offset=".7373" stop-color="#7cd1e6"/><stop offset=".9074" stop-color="#83f2e2"/><stop offset="1" stop-color="#85ffe0"/></linearGradient><radialGradient id="SVGID_2_" cx="256" cy="256" gradientUnits="userSpaceOnUse" r="256"><stop offset="0" stop-color="#0056e0" stop-opacity=".8"/><stop offset=".1296" stop-color="#005fdc" stop-opacity=".696"/><stop offset=".3409" stop-color="#0077d1" stop-opacity=".527"/><stop offset=".6076" stop-color="#009fc0" stop-opacity=".314"/><stop offset=".9166" stop-color="#00d6a8" stop-opacity=".067"/><stop offset="1" stop-color="#00e5a1" stop-opacity="0"/></radialGradient><linearGradient id="lg1"><stop offset="0" stop-color="#3ca1ff"/><stop offset=".137" stop-color="#47affa"/><stop offset=".7197" stop-color="#74e9e7"/><stop offset="1" stop-color="#85ffe0"/></linearGradient><linearGradient id="SVGID_3_" gradientUnits="userSpaceOnUse" x1="96.026" x2="534.769" xlink:href="#lg1" y1="376.08" y2="-62.663"/><linearGradient id="SVGID_4_" gradientUnits="userSpaceOnUse" x1="49.55" x2="488.8" xlink:href="#lg1" y1="452.452" y2="13.202"/><linearGradient id="lg2"><stop offset="0" stop-color="#230be0"/><stop offset=".2973" stop-color="#1850cc"/><stop offset=".7832" stop-color="#07bbad"/><stop offset="1" stop-color="#00e5a1"/></linearGradient><linearGradient id="SVGID_5_" gradientUnits="userSpaceOnUse" x1="-95.895" x2="379.241" xlink:href="#lg2" y1="454.865" y2="-20.271"/><linearGradient id="SVGID_6_" gradientTransform="matrix(-1 0 0 1 512 0)" gradientUnits="userSpaceOnUse" x1="433.023" x2="-44.009" xlink:href="#lg2" y1="549.799" y2="72.768"/><linearGradient id="SVGID_7_" gradientUnits="userSpaceOnUse" x1="-4.785" x2="241.787" xlink:href="#lg1" y1="388.064" y2="141.492"/><linearGradient id="SVGID_8_" gradientUnits="userSpaceOnUse" x1="-32.885" x2="272.833" xlink:href="#lg1" y1="400.097" y2="94.38"/><linearGradient id="lg3"><stop offset=".0056" stop-color="#85ffe0"/><stop offset=".055" stop-color="#97ffe4" stop-opacity=".95"/><stop offset=".1617" stop-color="#b7ffed" stop-opacity=".843"/><stop offset=".2775" stop-color="#d1fff3" stop-opacity=".727"/><stop offset=".404" stop-color="#e6fff9" stop-opacity=".599"/><stop offset=".5466" stop-color="#f4fffc" stop-opacity=".456"/><stop offset=".7186" stop-color="#fcfffe" stop-opacity=".283"/><stop offset="1" stop-color="#fff" stop-opacity="0"/></linearGradient><linearGradient id="SVGID_9_" gradientUnits="userSpaceOnUse" x1="179.523" x2="179.523" xlink:href="#lg3" y1="277.582" y2="66.308"/><linearGradient id="SVGID_10_" gradientUnits="userSpaceOnUse" x1="72.077" x2="317.297" xlink:href="#lg1" y1="386.766" y2="141.545"/><linearGradient id="SVGID_11_" gradientUnits="userSpaceOnUse" x1="43.805" x2="348.378" xlink:href="#lg1" y1="399.007" y2="94.434"/><linearGradient id="SVGID_12_" gradientUnits="userSpaceOnUse" x1="256" x2="256" xlink:href="#lg3" y1="277.541" y2="65.66"/><linearGradient id="SVGID_13_" gradientUnits="userSpaceOnUse" x1="149.932" x2="392.516" xlink:href="#lg1" y1="384.99" y2="142.406"/><linearGradient id="SVGID_14_" gradientUnits="userSpaceOnUse" x1="121.593" x2="423.324" xlink:href="#lg1" y1="397.319" y2="95.587"/><linearGradient id="SVGID_15_" gradientUnits="userSpaceOnUse" x1="332.477" x2="332.477" xlink:href="#lg3" y1="277.582" y2="66.308"/><linearGradient id="lg4"><stop offset=".0056" stop-color="#85ffe0"/><stop offset=".127" stop-color="#a3ffe8"/><stop offset=".2884" stop-color="#c4fff0"/><stop offset=".4545" stop-color="#defff7"/><stop offset=".6251" stop-color="#f0fffb"/><stop offset=".8031" stop-color="#fbfffe"/><stop offset="1" stop-color="#fff"/></linearGradient><linearGradient id="SVGID_16_" gradientUnits="userSpaceOnUse" x1="142.027" x2="499.262" xlink:href="#lg4" y1="425.895" y2="68.66"/><linearGradient id="SVGID_17_" gradientUnits="userSpaceOnUse" x1="211.689" x2="597.434" xlink:href="#lg4" y1="371.152" y2="-14.593"/><linearGradient id="SVGID_18_" gradientUnits="userSpaceOnUse" x1="65.765" x2="363.762" xlink:href="#lg1" y1="518.234" y2="220.237"/><linearGradient id="SVGID_19_" gradientUnits="userSpaceOnUse" x1="125.382" x2="313.861" y1="456.627" y2="268.148"><stop offset="0" stop-color="#3ca1ff"/><stop offset=".2987" stop-color="#4fb9f7"/><stop offset=".9284" stop-color="#7ff7e2"/><stop offset="1" stop-color="#85ffe0"/></linearGradient><g><circle cx="256" cy="256" fill="url(#SVGID_1_)" r="256"/><circle cx="256" cy="256" fill="url(#SVGID_2_)" r="256"/><path d="m120.011 117.659c-1.925 64.871-2.685 129.742-2.281 194.613 92.18.454 184.36.454 276.54 0 .404-64.871-.356-129.742-2.281-194.613-90.66-2.162-181.319-2.162-271.978 0z" fill="url(#SVGID_3_)"/><path d="m119.193 148.102c-1.561 64.871-1.957 129.742-1.188 194.612 91.996.864 183.993.864 275.989 0 .769-64.871.372-129.741-1.188-194.612-91.204-1.753-182.408-1.753-273.613 0z" fill="url(#SVGID_4_)"/><path d="m39.8 256c-.131 19.316 2.592 38.009 7.742 55.853 28.708 20.242 57.509 40.822 86.193 61.506-1.354-87.404-.836-174.809 1.552-262.213.349-13.465-15.242-19.858-25.177-10.332-41.912 40.216-69.947 95.134-70.31 155.186z" fill="url(#SVGID_5_)"/><path d="m472.2 256c.13 19.316-2.592 38.009-7.742 55.853-28.708 20.242-57.509 40.822-86.193 61.506 1.354-87.404.837-174.809-1.552-262.213-.35-13.465 15.242-19.858 25.177-10.332 41.912 40.216 69.947 95.134 70.31 155.186z" fill="url(#SVGID_6_)"/><path d="m181 85.883c-5.466.087-10.617 1.679-15.095 4.368-1.604 70.063-2.313 140.126-2.126 210.189 15.37.032 30.74.057 46.11.073-.082-61.432.179-122.864.781-184.295.143-16.967-13.126-30.606-29.67-30.335z" fill="url(#SVGID_7_)"/><path d="m165.905 90.25c-9.091 5.464-15.41 15.46-15.674 26.768-1.405 61.129-2.012 122.257-1.822 183.386 10.247.025 20.494.047 30.74.065-.136-61.311.298-122.621 1.301-183.932.182-11.344-5.697-21.161-14.545-26.287z" fill="url(#SVGID_8_)"/><path d="m150.231 117.019c-1.405 61.129-2.012 122.257-1.822 183.386 20.494.051 40.987.087 61.48.109-.082-61.432.179-122.864.781-184.295.142-16.967-13.126-30.605-29.67-30.335-16.543.269-30.359 14.267-30.769 31.135z" fill="url(#SVGID_9_)"/><path d="m256 85.287c-5.466 0-10.587 1.516-15.016 4.147-.267 70.367-.385 140.733-.354 211.1 15.37.005 30.74.003 46.11-.008.054-61.47-.119-122.94-.521-184.409-.133-16.969-13.676-30.83-30.219-30.83z" fill="url(#SVGID_10_)"/><path d="m240.984 89.435c-8.99 5.347-15.126 15.31-15.204 26.683-.401 61.47-.575 122.939-.521 184.409 10.247.007 20.493.011 30.74.011 0-61.5 0-123 0-184.5-.003-11.38-6.066-21.314-15.015-26.603z" fill="url(#SVGID_11_)"/><path d="m225.78 116.117c-.401 61.47-.575 122.939-.521 184.409 20.494.015 40.987.015 61.48 0 .055-61.47-.119-122.94-.52-184.409-.134-16.969-13.676-30.83-30.22-30.83-16.543.001-30.085 13.861-30.219 30.83z" fill="url(#SVGID_12_)"/><path d="m331 85.883c-5.466-.087-10.558 1.343-14.937 3.902 1.069 70.237 1.542 140.473 1.417 210.709 15.37-.021 30.74-.052 46.11-.09.191-61.129-.417-122.257-1.822-183.386-.409-16.866-14.226-30.864-30.768-31.135z" fill="url(#SVGID_13_)"/><path d="m316.063 89.784c-8.888 5.194-14.841 15.067-14.734 26.433.602 61.432.862 122.864.781 184.295 10.247-.011 20.493-.025 30.74-.043.136-61.311-.298-122.621-1.301-183.932-.189-11.341-6.435-21.333-15.486-26.753z" fill="url(#SVGID_14_)"/><path d="m301.329 116.217c.602 61.432.862 122.864.781 184.295 20.493-.022 40.987-.058 61.481-.109.191-61.129-.417-122.257-1.822-183.386-.41-16.867-14.227-30.865-30.769-31.136-16.544-.269-29.813 13.37-29.671 30.336z" fill="url(#SVGID_15_)"/><path d="m409.212 350.762c-102.141 1.202-204.283 1.202-306.425 0-.321-21.557-.498-43.113-.532-64.669-.026-16.758 13.815-30.409 30.787-30.473 81.972-.243 163.943-.243 245.914 0 16.972.065 30.813 13.716 30.787 30.473-.033 21.556-.21 43.112-.531 64.669z" fill="url(#SVGID_16_)"/><path d="m439.855 350.365c-122.57 1.732-245.14 1.732-367.709 0-.204-11.37-.36-22.74-.467-34.11-.162-16.662 13.597-30.166 30.578-30.162 102.496.127 204.992.127 307.488 0 16.981-.003 30.74 13.501 30.578 30.162-.108 11.37-.264 22.74-.468 34.11z" fill="url(#SVGID_17_)"/><path d="m414.339 318.569c-26.377.181-26.283-17.205-52.701-17.141-26.408.055-26.467 17.542-52.859 17.614-26.385.054-26.368-17.485-52.782-17.48-26.413-.005-26.395 17.535-52.78 17.48-26.389-.073-26.449-17.56-52.855-17.614-26.419-.065-26.324 17.322-52.702 17.141-21.569-.156-25.612-11.71-40.771-15.973-5.761-1.619-10.983 3.594-9.352 9.238 26.498 89.337 112.065 159.74 208.463 159.878 96.398-.138 181.965-70.541 208.462-159.878 1.63-5.643-3.591-10.856-9.352-9.238-15.159 4.265-19.202 15.818-40.771 15.973z" fill="url(#SVGID_18_)"/><path d="m316.44 440.629c-86.056.982-161.774-53.304-196.342-128.097-5.494 3.336-11.816 6.11-22.437 6.037-21.569-.156-25.612-11.71-40.771-15.973-5.761-1.619-10.983 3.594-9.352 9.238 26.497 89.337 112.064 159.74 208.462 159.878 45.893.021 88.58-15.806 124.238-41.865-20.27 6.747-41.665 10.548-63.798 10.782z" fill="url(#SVGID_19_)"/></g></svg>